HIERARCHY
ROOT pelvis
{
  OFFSET 0 100 0
  CHANNELS 6 Xposition Yposition Zposition Zrotation Xrotation Yrotation
  JOINT pelvis_right_femur
  {
    OFFSET -10.78128 -3.44521 -0.5502486
    CHANNELS 3 Zrotation Xrotation Yrotation
    JOINT right_femur_tibia
    {
      OFFSET -0.8047443 -44.0398 -0.1307829
      CHANNELS 3 Zrotation Xrotation Yrotation
      JOINT right_tibia_foot
      {
        OFFSET 3.006224 -47.83518 -5
        CHANNELS 3 Zrotation Xrotation Yrotation
        End Site
        {
          OFFSET 0 -5 15
        }
      }
    }
  }
  JOINT pelvis_left_femur
  {
    OFFSET 10.78128 -3.44521 -0.5502486
    CHANNELS 3 Zrotation Xrotation Yrotation
    JOINT left_femur_tibia
    {
      OFFSET 0.8047443 -44.0398 -0.1307829
      CHANNELS 3 Zrotation Xrotation Yrotation
      JOINT left_tibia_foot
      {
        OFFSET -4.370144 -48.10324 -4.275266
        CHANNELS 3 Zrotation Xrotation Yrotation
        End Site
        {
          OFFSET 0 -5 15
        }
      }
    }
  }
  JOINT pelvis_spine1
  {
    OFFSET 0 6.468898 -3.129235
    CHANNELS 3 Zrotation Xrotation Yrotation
    JOINT spine1
    {
      OFFSET 0 23.15396 4.99043
      CHANNELS 3 Zrotation Xrotation Yrotation
      JOINT spine2
      {
        OFFSET 0 20.79997 -5.064912
        CHANNELS 3 Zrotation Xrotation Yrotation
        JOINT neck
        {
          OFFSET 0 14.38658 9.616178
          CHANNELS 3 Zrotation Xrotation Yrotation
          End Site
          {
            OFFSET 0 20 0
          }
        }
      }
      JOINT right_manubrium
      {
        OFFSET -5.722621 16.35077 3.967754
        CHANNELS 3 Zrotation Xrotation Yrotation
        JOINT right_clavicle
        {
          OFFSET -13.16364 1.694482 -4.693211
          CHANNELS 3 Zrotation Xrotation Yrotation
          JOINT right_humerus
          {
            OFFSET -28.5034 -0.3100689 -2.792744
            CHANNELS 3 Zrotation Xrotation Yrotation
            JOINT right_radius
            {
              OFFSET -25.15693 0.02248979 -1.271978
              CHANNELS 3 Zrotation Xrotation Yrotation
              End Site
              {
                OFFSET -15 0 0
              }
            }
          }
        }
      }
      JOINT left_manubrium
      {
        OFFSET 5.722621 16.35077 3.967754
        CHANNELS 3 Zrotation Xrotation Yrotation
        JOINT left_clavicle
        {
          OFFSET 13.16364 1.694482 -4.693211
          CHANNELS 3 Zrotation Xrotation Yrotation
          JOINT left_humerus
          {
            OFFSET 29.39168 -1.063119 -2.237045
            CHANNELS 3 Zrotation Xrotation Yrotation
            JOINT left_radius
            {
              OFFSET 24.59957 -0.9528479 0.9047498
              CHANNELS 3 Zrotation Xrotation Yrotation
              End Site
              {
                OFFSET 15 -0 -0
              }
            }
          }
        }
      }
    }
  }
}
MOTION
Frames: 13
Frame Time: 0.0416666666667
-500.2825 103.663 2971.678 -4.024512 -7.022975 -34.74882 5.610361 6.560736 2.290844 -0 9.33991 -0 -7.992541 -7.545998 -2.843714 0.07599141 -16.24477 -3.887185 -0 48.15645 -0 -1.975725 -5.481787 17.37424 -1.959534 -2.762188 6.304075 -1.217927 15.65722 -7.03384 -1.435108 19.74228 7.37764 9.530293 -13.03017 -0.4710812 4.879508 -21.46292 12.83977 87.01106 25.91499 -18.93003 -0 0 21.21039 -24.985 9.658969 8.01906 9.25605 -30.937 -10.40654 -90.0426 4.264331 20.54273 0 0 -16.37224 12.49684 9.901535 -3.17545
-503.1303 103.2612 2976.259 -3.961653 -6.468543 -35.33688 5.567751 9.951803 2.077346 -0 8.733204 -0 -7.654924 -10.34056 -2.164952 1.663425 -20.43617 -2.770962 -0 37.86742 -0 -1.494956 -5.355541 17.81274 -1.900117 -2.852536 6.564689 -1.203087 15.74303 -7.004951 -1.511573 19.65073 7.337397 9.539574 -12.84514 -0.6214241 4.902967 -21.84884 12.92595 86.87055 25.72068 -18.73538 -0 0 21.76496 -24.88436 9.545812 8.062391 9.010253 -30.98752 -10.48925 -90.46144 4.17255 21.7039 0 0 -15.52241 12.12344 9.713865 -2.433486
-505.9275 102.415 2981.03 -4.058731 -5.601155 -35.88807 5.655842 12.86974 1.822294 -0 8.94373 -0 -7.091423 -13.11686 -1.528795 3.202554 -23.14825 -1.843212 -0 27.005 -0 -1.398968 -4.781423 17.94691 -1.85637 -2.977897 6.825903 -1.19414 15.83076 -7.000739 -1.604896 19.51163 7.314334 9.599794 -12.60454 -0.8259323 4.978217 -22.21763 13.01247 86.69897 25.53499 -18.5965 -0 0 22.37216 -24.81345 9.462912 8.117974 8.826406 -31.12112 -10.56171 -90.84647 4.013578 22.79425 0 0 -14.83679 11.71972 9.472329 -1.629914
-508.744 101.3253 2986.119 -4.184135 -4.736755 -36.48057 5.460887 15.51913 1.595837 -0 10.15178 -0 -6.524061 -15.20372 -0.917593 4.047372 -24.47325 -1.687289 -0 17.92365 -0 -1.73926 -4.070905 17.98697 -1.832641 -3.133729 7.073013 -1.192351 15.92224 -7.025537 -1.711546 19.33132 7.310631 9.712603 -12.31815 -1.079327 5.105412 -22.54658 13.09766 86.51232 25.3606 -18.53656 -0 0 22.9976 -24.7825 9.412416 8.180511 8.718555 -31.34119 -10.62303 -91.17458 3.795271 23.74683 0 0 -14.35874 11.30193 9.184938 -0.7982793
-511.6605 100.2195 2991.603 -4.177073 -4.265975 -37.13525 4.637852 17.98887 1.461612 -0 12.60333 -0 -6.197911 -15.52372 -0.3355409 3.670406 -24.58149 -2.674019 -0 12.38116 -0 -2.362055 -3.755599 18.22155 -1.833395 -3.31271 7.289155 -1.198158 16.0244 -7.087262 -1.827226 19.11737 7.325656 9.877055 -12.00325 -1.37572 5.278642 -22.8126 13.18164 86.33743 25.1944 -18.58847 -0 0 23.60201 -24.80366 9.392861 8.238652 8.701193 -31.6516 -10.67653 -91.41714 3.526473 24.48324 0 0 -14.14293 10.89247 8.861141 0.01040575
-514.7432 99.33353 2997.495 -3.937405 -4.438818 -37.77225 3.121396 20.07358 1.442224 -0 16.67041 -0 -6.221699 -13.15722 0.2190984 1.985316 -23.6096 -4.687424 -0 10.89649 -0 -2.962456 -4.250536 18.7862 -1.861846 -3.504202 7.457534 -1.210861 16.14582 -7.194033 -1.946425 18.87956 7.355559 10.0871 -11.68418 -1.70602 5.484871 -22.99631 13.2652 86.20607 25.0304 -18.78294 -0 0 24.14582 -24.88707 9.399925 8.277798 8.784575 -32.05021 -10.72769 -91.54624 3.21873 24.929 0 0 -14.23862 10.51825 8.514299 0.7319623
-518.0088 98.89696 3003.717 -3.487083 -5.204437 -38.2109 1.215678 21.19571 1.481284 -0 22.73782 -0 -6.529124 -7.938544 0.771564 -0.5528953 -21.60769 -7.128828 -0 12.61494 -0 -3.197857 -5.565586 19.54062 -1.918483 -3.695316 7.564802 -1.22888 16.29086 -7.348987 -2.062451 18.62983 7.394338 10.33059 -11.38815 -2.055899 5.705627 -23.08627 13.34774 86.1436 24.86524 -19.13187 -0 0 24.59628 -25.03642 9.428855 8.286095 8.970375 -32.52259 -10.78007 -91.54336 2.886677 25.03402 0 0 -14.66952 10.2064 8.163069 1.301316
-521.3968 99.08574 3010.09 -2.991867 -6.245271 -38.25536 -0.5060946 20.60406 1.463503 -0 30.8276 -0 -6.972883 -0.7473163 1.269185 -3.142982 -18.59792 -9.226991 -0 15.76532 -0 -2.88688 -7.299228 20.17792 -2.000196 -3.872832 7.603649 -1.25044 16.45436 -7.546006 -2.167856 18.38181 7.435972 10.59026 -11.13961 -2.405091 5.920665 -23.08064 13.42534 86.15896 24.70385 -19.61662 -0 0 24.93187 -25.24602 9.476935 8.260063 9.249649 -33.03949 -10.83181 -91.40546 2.547425 24.78645 0 0 -15.42112 9.979915 7.830887 1.666171
-524.7711 99.94143 3016.364 -2.714855 -7.167197 -37.82303 -1.498111 17.75765 1.327399 -0 40.07667 -0 -7.413694 6.66085 1.509155 -5.025922 -14.6684 -10.46776 -0 18.45369 -0 -2.145459 -8.92687 20.4438 -2.100432 -4.024619 7.573331 -1.274187 16.62043 -7.768693 -2.255011 18.1504 7.476375 10.84583 -10.9566 -2.72816 6.111615 -22.98556 13.49047 86.24212 24.56166 -20.18808 -0 0 25.14111 -25.50047 9.54414 8.206317 9.603252 -33.55897 -10.87505 -91.14584 2.220035 24.21403 0 0 -16.4394 9.855411 7.5439 1.795458
-527.9662 101.3094 3022.292 -2.866989 -7.699391 -37.01088 -1.566532 12.63581 1.13921 -0 48.50765 -0 -7.761583 12.28803 1.270522 -5.846376 -10.02658 -10.84678 -0 19.44631 -0 -1.286908 -10.15914 20.28154 -2.210308 -4.140257 7.478372 -1.299375 16.76606 -7.993288 -2.316792 17.95142 7.514171 11.07659 -10.84984 -2.99704 6.264372 -22.81178 13.53348 86.36977 24.46206 -20.77857 -0 0 25.21773 -25.77701 9.631723 8.138555 10.00425 -34.03278 -10.89887 -90.79017 1.925027 23.37416 0 0 -17.64013 9.842931 7.327742 1.680722
-530.8665 102.8562 3027.724 -3.41711 -7.780694 -36.04002 -0.9514651 5.809329 0.9526641 -0 53.57611 -0 -8.016909 14.7685 0.5643581 -5.767666 -5.027099 -10.74251 -0 18.56244 -0 -0.5780827 -11.11466 19.80125 -2.320288 -4.211499 7.326532 -1.325552 16.86775 -8.19444 -2.347453 17.80017 7.550125 11.26408 -10.82354 -3.185413 6.370088 -22.57134 13.54532 86.51512 24.42966 -21.31979 -0 0 25.15711 -26.04969 9.740074 8.07184 10.42197 -34.41538 -10.89355 -90.36964 1.682872 22.33835 0 0 -18.92598 9.946357 7.20342 1.332552
-533.4724 104.1751 3032.662 -4.053003 -7.512183 -35.12509 -0.136534 -1.74426 0.617319 -0 53.39733 -0 -8.223617 13.9893 -0.3170461 -5.284008 -0.1413628 -10.53701 -0 16.44267 -0 -0.1145722 -12.19733 19.12291 -2.421791 -4.233046 7.127124 -1.352028 16.90752 -8.351261 -2.343545 17.70898 7.585802 11.39471 -10.87657 -3.273716 6.425065 -22.27586 13.52002 86.65624 24.48276 -21.75864 -0 0 24.9563 -26.2939 9.867228 8.017407 10.82681 -34.67246 -10.85397 -89.91403 1.511222 21.17748 0 0 -20.20569 10.16355 7.183269 0.7753238
-535.9011 104.9274 3037.243 -4.380273 -7.049124 -34.37804 0.4197767 -8.995075 -0.1418865 -0 47.78835 -0 -8.335561 11.04909 -1.052163 -4.892639 4.196496 -10.36003 -0 13.95849 -0 0.1304023 -13.76741 18.29564 -2.508163 -4.203326 6.890264 -1.377505 16.87628 -8.450979 -2.304497 17.685 7.622322 11.4611 -11.00339 -3.252556 6.429919 -21.93665 13.45602 86.77968 24.62831 -22.06469 -0 0 24.61698 -26.4897 10.0085 7.980412 11.19391 -34.78578 -10.78047 -89.44792 1.422313 19.95403 0 0 -21.4064 10.486 7.268751 0.04327482
